<svg id="Layer_1" data-name="Layer 1" xmlns="http://www.w3.org/2000/svg" xmlns:xlink="http://www.w3.org/1999/xlink" viewBox="0 0 245.25 100"><defs><style>.cls-1{fill:#726658;}.cls-2{fill:#8e8579;}.cls-3,.cls-4{fill:#0ca3da;}.cls-4{opacity:0.8;}.cls-5{fill:#787168;}.cls-6{fill:#564d42;}.cls-7{fill:url(#linear-gradient);}.cls-8{fill:url(#linear-gradient-2);}.cls-9{fill:url(#linear-gradient-3);}.cls-10{fill:url(#linear-gradient-4);}.cls-11{fill:url(#linear-gradient-5);}.cls-12{fill:url(#linear-gradient-6);}.cls-13{fill:#4e9001;}</style><linearGradient id="linear-gradient" x1="80.67" y1="59.85" x2="72.38" y2="21.59" gradientUnits="userSpaceOnUse"><stop offset="0" stop-color="#a3f305"/><stop offset="1" stop-color="#4e9001"/></linearGradient><linearGradient id="linear-gradient-2" x1="-31.13" y1="-68.1" x2="46.93" y2="-68.1" gradientTransform="matrix(0.95, 0.33, 0.33, -0.95, 54.49, 17.4)" xlink:href="#linear-gradient"/><linearGradient id="linear-gradient-3" x1="-15.48" y1="-0.98" x2="-18.18" y2="-65.76" gradientTransform="matrix(0.95, 0.33, 0.33, -0.95, 54.49, 17.4)" xlink:href="#linear-gradient"/><linearGradient id="linear-gradient-4" x1="80.04" y1="10.7" x2="74.33" y2="16.42" gradientTransform="matrix(1, 0, 0, -1, 0.02, 101.2)" gradientUnits="userSpaceOnUse"><stop offset="0" stop-color="#4e9001" stop-opacity="0"/><stop offset="0.25" stop-color="#4e9001" stop-opacity="0.25"/><stop offset="0.58" stop-color="#4e9001" stop-opacity="0.58"/><stop offset="0.84" stop-color="#4e9001" stop-opacity="0.84"/><stop offset="1" stop-color="#4e9001"/></linearGradient><linearGradient id="linear-gradient-5" x1="71.02" y1="73.29" x2="52.38" y2="91.93" gradientTransform="matrix(1, 0, 0, -1, 0, 101)" gradientUnits="userSpaceOnUse"><stop offset="0" stop-color="#5d7501" stop-opacity="0"/><stop offset="0.25" stop-color="#267f00" stop-opacity="0.25"/><stop offset="0.58" stop-color="#4e6d01" stop-opacity="0.58"/><stop offset="0.84" stop-color="#4e8b01" stop-opacity="0.84"/><stop offset="1" stop-color="#4e7501"/></linearGradient><linearGradient id="linear-gradient-6" x1="141.08" y1="74.08" x2="141.08" y2="73.69" xlink:href="#linear-gradient"/></defs><title>Untitled-4</title><g id="surface1"><path class="cls-1" d="M42.46,40.63H23.71a1.7,1.7,0,0,0-1.7,1.7v.85H42.46Z" transform="translate(0 -0.43)"/><path class="cls-2" d="M62.91,43.18v-.85a1.7,1.7,0,0,0-1.7-1.7H42.46v2.55Z" transform="translate(0 -0.43)"/><path class="cls-3" d="M22,43.18H42.46V61.93H22Z" transform="translate(0 -0.43)"/><path class="cls-4" d="M42.46,61.93h9.37v-.85a1.73,1.73,0,0,1,1.71-1.71H56.1V52.56a1.71,1.71,0,0,1,1.7-1.71h5.11V43.18H42.46Z" transform="translate(0 -0.43)"/><path class="cls-2" d="M42.46,61.93v2.56h9.37V61.93Z" transform="translate(0 -0.43)"/><path class="cls-1" d="M42.46,61.93H22v.85a1.71,1.71,0,0,0,1.7,1.71H42.46Z" transform="translate(0 -0.43)"/><path class="cls-4" d="M63.77,53.41h7.66V68.75H63.77Z" transform="translate(0 -0.43)"/><path class="cls-3" d="M56.1,59.37h2.55a1.73,1.73,0,0,1,1.71,1.71v7.67h3.41V53.41H56.1Z" transform="translate(0 -0.43)"/><path class="cls-2" d="M63.77,71.3h6a1.7,1.7,0,0,0,1.7-1.7v-.85H63.77Z" transform="translate(0 -0.43)"/><path class="cls-1" d="M60.36,68.75V71.3h3.41V68.75Z" transform="translate(0 -0.43)"/><path class="cls-1" d="M56.1,52.56v.85h7.67V50.85h-6A1.71,1.71,0,0,0,56.1,52.56Z" transform="translate(0 -0.43)"/><path class="cls-2" d="M69.73,50.85h-6v2.56h7.66v-.85A1.71,1.71,0,0,0,69.73,50.85Z" transform="translate(0 -0.43)"/><path class="cls-3" d="M56.1,61.93H51.83v8.52H56.1Z" transform="translate(0 -0.43)"/><path class="cls-4" d="M56.1,61.93v8.52h4.26V61.93Z" transform="translate(0 -0.43)"/><path class="cls-2" d="M56.1,70.45V73h2.55a1.72,1.72,0,0,0,1.71-1.71v-.85Z" transform="translate(0 -0.43)"/><path class="cls-1" d="M51.83,70.45v.85A1.72,1.72,0,0,0,53.54,73H56.1V70.45Z" transform="translate(0 -0.43)"/><path class="cls-2" d="M60.36,61.08a1.73,1.73,0,0,0-1.71-1.71H56.1v2.56h4.26Z" transform="translate(0 -0.43)"/><path class="cls-1" d="M53.54,59.37a1.73,1.73,0,0,0-1.71,1.71v.85H56.1V59.37Z" transform="translate(0 -0.43)"/><path class="cls-5" d="M49.28,68.75H46.72V64.49H42.46v6h6.82a.85.85,0,0,0,0-1.7Z" transform="translate(0 -0.43)"/><path class="cls-6" d="M38.2,64.49v4.26H35.64a.85.85,0,0,0,0,1.7h6.82v-6Z" transform="translate(0 -0.43)"/></g><path class="cls-7" d="M91.41,84l-11,2.43h0l-1.92.42h0l-.15,0-.17,0-.1,0h-.23l-.13,0H77l-.23,0h-.14l-.13,0-.17,0h0L76,86.8h0l-.19-.06-.29-.09-.18-.08-.14-.06-.13-.06-.16-.08,0,0-.25-.15,0,0,0,0-.08-.05-.07,0-.14-.1-.19-.14-.17-.16c-.12-.1-.23-.22-.34-.33l0,0-.07-.08-.09-.11-.1-.12,0-.06,0,0a.43.43,0,0,1,0-.07l-.07-.09,0,0-.06-.1,0,0-.07-.11c-.07-.12-.13-.25-.2-.38s0-.12-.07-.17h0a2.44,2.44,0,0,1-.1-.24c0-.07,0-.13-.07-.19l-.08-.26c0-.07,0-.12,0-.18h0a.31.31,0,0,1,0-.08l-.53-2.48h0L69.52,69.75a5.19,5.19,0,0,1,3.93-6.17,5.13,5.13,0,0,1,6.1,4l.17.83a35.49,35.49,0,0,0-8.34-39.19l-.46-.43-.31-.27a34.37,34.37,0,0,0-12.39-7.1l.06-.05,1.89-1.66.06-.06.14-.13.18-.19.14-.15.17-.21.11-.15c.08-.12.16-.24.23-.36l.09-.17c.05-.08.09-.16.13-.24a1.42,1.42,0,0,0,.08-.18c0-.09.08-.19.11-.28l.06-.16c0-.15.09-.3.13-.45s.06-.32.08-.47,0-.12,0-.18a1.11,1.11,0,0,0,0-.17V16c0-.1,0-.2,0-.3a1.48,1.48,0,0,0,0-.21c0-.1,0-.2,0-.31s0-.12,0-.19,0-.21-.06-.3a1.18,1.18,0,0,0,0-.2c0-.1-.05-.19-.08-.29s0-.13-.07-.2a2.77,2.77,0,0,0-.1-.26,1.89,1.89,0,0,0-.09-.21c0-.08-.07-.16-.12-.24a2.12,2.12,0,0,0-.11-.21l-.14-.22-.14-.2-.16-.21a.58.58,0,0,0-.1-.12l-1.21-1.42a44.34,44.34,0,0,1,17.9,9.73l.4.35A46,46,0,0,1,88.48,74l.24-.06.52-.11a5.13,5.13,0,0,1,6.1,4A5.2,5.2,0,0,1,91.41,84Z" transform="translate(0 -0.43)"/><path class="cls-8" d="M80.09,86.46A44.6,44.6,0,0,1,61,98.39l-.5.16A44.8,44.8,0,0,1,10.23,80.08l-.08.24-.17.5A5.12,5.12,0,0,1,3.44,84,5.19,5.19,0,0,1,.29,77.39L4,66.58l.65-1.88.06-.14a2.6,2.6,0,0,1,.1-.25l.1-.22.12-.23a2.39,2.39,0,0,1,.13-.21l.14-.22.14-.18A1.84,1.84,0,0,1,5.63,63l.14-.16L6,62.66l.14-.14.24-.19.15-.12L6.77,62l.17-.11.26-.14.09,0,.16-.07.16-.07.44-.16a3.43,3.43,0,0,1,.46-.11l.16,0,.29,0,.19,0h.47l.42,0,.19,0,.26,0,.2,0,.25.08.18.05.09,0,2.36.83L23.74,66a5.21,5.21,0,0,1,3.15,6.62,5.11,5.11,0,0,1-6.54,3.18l-.79-.28a34.56,34.56,0,0,0,37.37,13.3l.6-.18c.13,0,.27-.08.39-.12a34.35,34.35,0,0,0,13.71-8.12v.06h0l.54,2.48a.31.31,0,0,0,0,.08h0c0,.06,0,.12,0,.19s.05.17.08.25a1.59,1.59,0,0,0,.07.2,2.44,2.44,0,0,0,.1.24h0s.05.11.07.17.13.26.2.38l.07.11,0,0,.07.1s0,0,0,0l.07.09a.43.43,0,0,0,0,.07l0,0,0,.06.1.12.09.11.07.08,0,0,.33.33.18.15c.06.06.13.1.19.15l.14.1.07,0,.07.05,0,0,0,0,.25.15h0a.8.8,0,0,0,.16.08l.13.07.14.06.18.08.29.09.19.06h0l.28.07h0l.17,0,.13,0h.14l.23,0h1l.1,0,.17,0,.15,0h0Z" transform="translate(0 -0.43)"/><path class="cls-9" d="M4.67,64.7l.06-.14a2.6,2.6,0,0,1,.1-.25l.1-.21.12-.24a2.39,2.39,0,0,1,.13-.21l.14-.22.14-.18A1.84,1.84,0,0,1,5.63,63l.14-.16L6,62.66l.14-.14.24-.19.15-.12L6.77,62l.17-.11.26-.15.09,0,.16-.07.16-.07.44-.16a3.43,3.43,0,0,1,.46-.11l.16,0,.29,0,.19,0h.47l.42,0,.19,0,.26,0,.2,0,.25.07.18.06.09,0,2.36.83.07,0a35.51,35.51,0,0,1,.06-15c0-.14.06-.28.1-.41s.09-.41.14-.62a34.91,34.91,0,0,1,30-26.24l-.64.56A5.24,5.24,0,0,0,42.74,28,5.09,5.09,0,0,0,50,28.5l8.14-7.16L60,19.68l.07-.06.14-.13.18-.19.14-.15.16-.21.12-.15c.08-.12.16-.24.23-.36l.09-.17a2,2,0,0,0,.13-.25.89.89,0,0,0,.08-.17c0-.09.08-.19.11-.28l.06-.16c.05-.15.09-.3.13-.45s.06-.32.08-.47,0-.12,0-.18a1,1,0,0,0,0-.17V16c0-.1,0-.2,0-.3s0-.14,0-.21,0-.2,0-.31a1.23,1.23,0,0,1,0-.19l-.06-.31a1.29,1.29,0,0,0,0-.19l-.08-.29c0-.06,0-.13-.07-.2a2.77,2.77,0,0,0-.1-.26,1.89,1.89,0,0,0-.09-.21c0-.08-.07-.16-.12-.24a2.12,2.12,0,0,0-.11-.21l-.14-.22-.14-.2-.16-.21s-.06-.09-.1-.12l-1.29-1.51L51.81,2.21a5.1,5.1,0,0,0-7.24-.51A5.24,5.24,0,0,0,44.06,9l.34.39.17.19a45.2,45.2,0,0,0-40.77,35l-.12.52a45.83,45.83,0,0,0,.38,21.34Z" transform="translate(0 -0.43)"/><path class="cls-10" d="M79.32,86.88l-1.82.4h0l-.15,0-.16,0-.1,0H77l-.11,0h-.77l-.22,0-.14,0-.14,0-.16,0h-.05l-.28-.07h0l-.19,0-.29-.1L74.44,87l-.14-.06-.14-.07L74,86.79h0l-.26-.15,0,0,0,0-.07,0-.08,0a.71.71,0,0,0-.14-.1l-.18-.15c-.06,0,3.28,3.34,3.28,3.34C77.43,88.7,78.42,87.83,79.32,86.88Z" transform="translate(0 -0.43)"/><path class="cls-11" d="M71.43,28.64l.46.43a34.93,34.93,0,0,1,8.82,13.36h10.5L60,10.81l1.22,1.42.09.12a1.84,1.84,0,0,1,.17.22l.13.19c.05.08.1.15.14.23l.12.21.12.24a2.2,2.2,0,0,1,.09.21c0,.08.07.17.1.26s0,.13.07.2.05.19.07.28,0,.14.05.2,0,.2,0,.3a1.5,1.5,0,0,1,0,.2l0,.31v.51s0,.06,0,.09,0,.12,0,.18a1,1,0,0,0,0,.17c0,.16,0,.32-.09.47a4,4,0,0,1-.13.46,1.66,1.66,0,0,1-.06.16c0,.09-.06.18-.1.28s-.05.11-.08.17l-.13.25-.09.17c-.07.12-.15.24-.23.35a1,1,0,0,1-.12.15,1.84,1.84,0,0,1-.17.22l-.13.15c-.06.06-.13.12-.19.19l-.14.13-.06.06-1.89,1.66,0,.05a34.36,34.36,0,0,1,12.39,7.09Z" transform="translate(0 -0.43)"/><path class="cls-12" d="M102.52,20h5.16v7.26h5.82V20h5.16v19.5H113.5V31.78h-5.82v7.74h-5.16Z" transform="translate(0 -0.43)"/><path class="cls-12" d="M125.29,20h6.24l5.94,19.5H132L129.79,30c-.48-1.86-1-4.23-1.44-6.18h-.12c-.42,2-.9,4.32-1.38,6.18l-2.22,9.48h-5.28Zm-1.68,11.37h9.54v4h-9.54Z" transform="translate(0 -0.43)"/><path class="cls-12" d="M139.48,24.34h-5.16V20H149.8v4.32h-5.16V39.52h-5.16Z" transform="translate(0 -0.43)"/><path class="cls-12" d="M151.51,20h12.6v4.32h-7.44V27.4H163v4.32h-6.36V35.2h7.74v4.32h-12.9Z" transform="translate(0 -0.43)"/><path class="cls-3" d="M102.52,20h5.16v7.26h5.82V20h5.16v19.5H113.5V31.78h-5.82v7.74h-5.16Z" transform="translate(0 -0.43)"/><path class="cls-3" d="M125.29,20h6.24l5.94,19.5H132L129.79,30c-.48-1.86-1-4.23-1.44-6.18h-.12c-.42,2-.9,4.32-1.38,6.18l-2.22,9.48h-5.28Zm-1.68,11.37h9.54v4h-9.54Z" transform="translate(0 -0.43)"/><path class="cls-3" d="M139.48,24.34h-5.16V20H149.8v4.32h-5.16V39.52h-5.16Z" transform="translate(0 -0.43)"/><path class="cls-3" d="M151.51,20h12.6v4.32h-7.44V27.4H163v4.32h-6.36V35.2h7.74v4.32h-12.9Z" transform="translate(0 -0.43)"/><path class="cls-13" d="M169,29.45h2.76l1.47,4c.18.54.33,1.14.51,1.71h.06c.18-.57.33-1.17.51-1.71l1.41-4h2.76V39.2h-2.34V36.32a33.85,33.85,0,0,1,.33-3.48h-.06l-.81,2.34-1.2,3.23H173l-1.2-3.23L171,32.84H171a33.85,33.85,0,0,1,.33,3.48V39.2H169Z" transform="translate(0 -0.43)"/><path class="cls-13" d="M181.75,35.84l-2.94-6.39h2.76l.72,2c.24.74.48,1.41.73,2.18h.06c.26-.77.51-1.44.77-2.18l.72-2h2.7l-2.94,6.39V39.2h-2.58Z" transform="translate(0 -0.43)"/><path class="cls-3" d="M106,44.57h6.24l5.94,19.5h-5.46l-2.22-9.48c-.48-1.86-1-4.23-1.44-6.18h-.12c-.42,2-.9,4.32-1.38,6.18l-2.22,9.48h-5.28Zm-1.68,11.37h9.54v4h-9.54Z" transform="translate(0 -0.43)"/><path class="cls-3" d="M117.67,61.64l2.94-3.54A7.92,7.92,0,0,0,125.17,60c1.56,0,2.22-.51,2.22-1.38s-1-1.23-2.64-1.89l-2.43-1a5.76,5.76,0,0,1-3.93-5.43c0-3.33,3-6.06,7.26-6.06a9.37,9.37,0,0,1,6.48,2.61l-2.58,3.24a6.43,6.43,0,0,0-3.9-1.41c-1.26,0-2,.45-2,1.32s1.11,1.26,2.88,2l2.37.93a5.36,5.36,0,0,1,3.81,5.34c0,3.3-2.76,6.23-7.62,6.23A11.28,11.28,0,0,1,117.67,61.64Z" transform="translate(0 -0.43)"/><path class="cls-3" d="M132.82,61.64l2.94-3.54A7.92,7.92,0,0,0,140.32,60c1.56,0,2.22-.51,2.22-1.38s-1-1.23-2.64-1.89l-2.43-1a5.76,5.76,0,0,1-3.93-5.43c0-3.33,3-6.06,7.26-6.06a9.37,9.37,0,0,1,6.48,2.61l-2.58,3.24a6.43,6.43,0,0,0-3.9-1.41c-1.26,0-2,.45-2,1.32s1.11,1.26,2.88,2l2.37.93a5.36,5.36,0,0,1,3.81,5.34c0,3.3-2.76,6.23-7.62,6.23A11.28,11.28,0,0,1,132.82,61.64Z" transform="translate(0 -0.43)"/><path class="cls-3" d="M149.77,44.57h12.6v4.32h-7.44V52h6.36v4.32h-6.36v3.48h7.74v4.32h-12.9Z" transform="translate(0 -0.43)"/><path class="cls-3" d="M169,48.89h-5.16V44.57h15.48v4.32h-5.16V64.07H169Z" transform="translate(0 -0.43)"/><path d="M100.85,76.76c0-1.26,1.09-1.9,3.58-2.17,0-.75-.26-1.47-1.21-1.47a3.28,3.28,0,0,0-1.74.62l-.38-.67a4.18,4.18,0,0,1,2.29-.77c1.42,0,2,1,2,2.4v3.58h-.81l-.09-.7h0a3.08,3.08,0,0,1-1.93.84A1.58,1.58,0,0,1,100.85,76.76Zm3.58.1V75.24c-2,.23-2.62.71-2.62,1.46s.45.93,1,.93A2.45,2.45,0,0,0,104.43,76.86Z" transform="translate(0 -0.43)"/><path d="M106.14,77.61l.49-.65a2.6,2.6,0,0,0,1.72.69c.76,0,1.14-.4,1.14-.9s-.68-.87-1.33-1.11c-.82-.3-1.74-.7-1.74-1.68s.75-1.66,2-1.66a3,3,0,0,1,1.82.66l-.48.63a2.16,2.16,0,0,0-1.33-.52c-.73,0-1.07.39-1.07.84s.63.76,1.29,1c.85.32,1.78.66,1.78,1.77,0,.94-.75,1.73-2.12,1.73A3.51,3.51,0,0,1,106.14,77.61Z" transform="translate(0 -0.43)"/><path d="M110.7,77.61l.49-.65a2.6,2.6,0,0,0,1.72.69c.76,0,1.14-.4,1.14-.9s-.68-.87-1.33-1.11c-.82-.3-1.74-.7-1.74-1.68s.75-1.66,2-1.66a3,3,0,0,1,1.82.66l-.48.63a2.16,2.16,0,0,0-1.33-.52c-.73,0-1.07.39-1.07.84s.63.76,1.29,1c.85.32,1.78.66,1.78,1.77,0,.94-.75,1.73-2.12,1.73A3.51,3.51,0,0,1,110.7,77.61Z" transform="translate(0 -0.43)"/><path d="M115.47,75.37a2.72,2.72,0,1,1,2.7,3A2.8,2.8,0,0,1,115.47,75.37Zm4.39,0c0-1.33-.68-2.24-1.69-2.24s-1.68.91-1.68,2.24.68,2.23,1.68,2.23S119.86,76.71,119.86,75.37Z" transform="translate(0 -0.43)"/><path d="M121.51,75.37a2.83,2.83,0,0,1,2.8-3.07A2.45,2.45,0,0,1,126,73l-.5.65a1.67,1.67,0,0,0-1.16-.51c-1.06,0-1.83.91-1.83,2.24s.73,2.23,1.8,2.23A2.11,2.11,0,0,0,125.7,77l.43.66a2.84,2.84,0,0,1-1.89.74A2.74,2.74,0,0,1,121.51,75.37Z" transform="translate(0 -0.43)"/><path d="M126.76,70.61a.69.69,0,1,1,.69.64A.64.64,0,0,1,126.76,70.61Zm.19,1.84h1v5.83h-1Z" transform="translate(0 -0.43)"/><path d="M129.07,76.76c0-1.26,1.1-1.9,3.58-2.17,0-.75-.25-1.47-1.2-1.47a3.22,3.22,0,0,0-1.74.62l-.39-.67a4.24,4.24,0,0,1,2.29-.77c1.42,0,2,1,2,2.4v3.58h-.82l-.08-.7h0a3.13,3.13,0,0,1-1.93.84A1.58,1.58,0,0,1,129.07,76.76Zm3.58.1V75.24c-2,.23-2.61.71-2.61,1.46s.44.93,1,.93A2.44,2.44,0,0,0,132.65,76.86Z" transform="translate(0 -0.43)"/><path d="M135,76.48V73.25h-.86V72.5l.91,0,.12-1.64H136v1.64h1.58v.8H136v3.24c0,.72.23,1.13.9,1.13a1.93,1.93,0,0,0,.67-.16l.19.75a3.57,3.57,0,0,1-1.09.21C135.43,78.42,135,77.64,135,76.48Z" transform="translate(0 -0.43)"/><path d="M137.83,75.37a2.81,2.81,0,0,1,2.62-3.07c1.49,0,2.33,1.07,2.33,2.74a2.9,2.9,0,0,1-.05.56H138.8a1.94,1.94,0,0,0,1.94,2,2.51,2.51,0,0,0,1.45-.47l.35.65a3.45,3.45,0,0,1-1.92.6A2.78,2.78,0,0,1,137.83,75.37Zm4.07-.48c0-1.16-.52-1.8-1.43-1.8a1.8,1.8,0,0,0-1.68,1.8Z" transform="translate(0 -0.43)"/><path d="M143.33,75.37c0-1.89,1.19-3.07,2.52-3.07a2.42,2.42,0,0,1,1.64.68l-.05-1V69.73h1v8.55h-.81l-.09-.69h0a2.58,2.58,0,0,1-1.77.83C144.27,78.42,143.33,77.31,143.33,75.37Zm4.11,1.43V73.74a2,2,0,0,0-1.42-.61c-.93,0-1.67.9-1.67,2.23s.58,2.23,1.6,2.23A2,2,0,0,0,147.44,76.8Z" transform="translate(0 -0.43)"/><path d="M151.17,72.45h1l.87,3.37c.12.55.23,1.07.34,1.62h.05c.13-.55.25-1.08.4-1.62l.9-3.37h1l.91,3.37c.14.55.27,1.07.4,1.62h.05c.13-.55.24-1.07.36-1.62l.85-3.37h.94l-1.56,5.83h-1.2l-.84-3.13c-.14-.56-.26-1.09-.4-1.68h0c-.13.59-.25,1.14-.41,1.69L154,78.28h-1.16Z" transform="translate(0 -0.43)"/><path d="M159.84,70.61a.68.68,0,0,1,1.36,0,.68.68,0,0,1-1.36,0Zm.18,1.84h1v5.83h-1Z" transform="translate(0 -0.43)"/><path d="M162.67,76.48V73.25h-.86V72.5l.91,0,.12-1.64h.82v1.64h1.58v.8h-1.58v3.24c0,.72.23,1.13.9,1.13a1.93,1.93,0,0,0,.67-.16l.19.75a3.57,3.57,0,0,1-1.08.21C163.1,78.42,162.67,77.64,162.67,76.48Z" transform="translate(0 -0.43)"/><path d="M166.09,69.73h1v2.34l0,1.2a2.79,2.79,0,0,1,1.94-1c1.23,0,1.78.8,1.78,2.28v3.7h-1V74.71c0-1.08-.33-1.55-1.1-1.55a2.2,2.2,0,0,0-1.59.9v4.22h-1Z" transform="translate(0 -0.43)"/><path d="M174.17,70.41h1V73.7h3.66V70.41h1v7.87h-1v-3.7h-3.66v3.7h-1Z" transform="translate(0 -0.43)"/><path d="M183.15,70.41h1.13l2.66,7.87h-1.06l-1.37-4.4c-.28-.88-.54-1.74-.79-2.65h-.05c-.24.91-.49,1.77-.78,2.65l-1.38,4.4h-1Zm-1.26,4.67h3.62v.8h-3.62Z" transform="translate(0 -0.43)"/><path d="M188.57,71.25h-2.38v-.84H192v.84h-2.38v7h-1Z" transform="translate(0 -0.43)"/><path d="M192.9,70.41h4.53v.84H193.9v2.47h3v.85h-3v2.86h3.65v.85H192.9Z" transform="translate(0 -0.43)"/><path d="M198.75,70.41H200l1.51,4.2c.19.54.37,1.1.56,1.64h0c.19-.54.36-1.1.55-1.64l1.49-4.2h1.2v7.87h-.93V73.94c0-.68.08-1.63.13-2.32h0l-.62,1.79-1.48,4.07h-.67l-1.49-4.07-.62-1.79h-.05c.05.69.13,1.64.13,2.32v4.34h-.91Z" transform="translate(0 -0.43)"/><path d="M208.28,75.23l-2.36-4.82H207l1,2.22c.25.58.49,1.13.76,1.72h.05c.27-.59.55-1.14.79-1.72l1-2.22h1l-2.37,4.82v3h-1Z" transform="translate(0 -0.43)"/><path d="M212.12,70.41h2.25c1.76,0,2.95.59,2.95,2.31s-1.18,2.44-2.9,2.44h-1.3v3.12h-1Zm2.17,3.93c1.38,0,2-.5,2-1.62s-.7-1.5-2.08-1.5h-1.12v3.12Z" transform="translate(0 -0.43)"/><path d="M218.44,70.41h1V73.7h3.67V70.41h1v7.87h-1v-3.7h-3.67v3.7h-1Z" transform="translate(0 -0.43)"/><path d="M225.34,74.31c0-2.52,1.39-4,3.37-4s3.36,1.54,3.36,4-1.39,4.11-3.36,4.11S225.34,76.83,225.34,74.31Zm5.7,0c0-2-.93-3.17-2.33-3.17s-2.33,1.21-2.33,3.17.92,3.23,2.33,3.23S231,76.28,231,74.31Z" transform="translate(0 -0.43)"/><path d="M233.3,70.41h1l2.85,5L238,77h.05c-.05-.8-.13-1.69-.13-2.51V70.41h1v7.87h-1l-2.85-5-.85-1.63h0c0,.8.13,1.64.13,2.46v4.12h-.95Z" transform="translate(0 -0.43)"/><path d="M240.59,70.41h4.54v.84H241.6v2.47h3v.85h-3v2.86h3.65v.85h-4.66Z" transform="translate(0 -0.43)"/></svg>